<mxfile host="app.diagrams.net" modified="2023-05-29T18:08:58.215Z" agent="Mozilla/5.0 (Windows NT 10.0; Win64; x64; rv:109.0) Gecko/20100101 Firefox/113.0" etag="9GNw0asXj2aaK1cl-Ujw" version="21.3.2" type="github">
  <diagram id="h9-nGVWCvcBNPeG7YI5t" name="Page-1">
    <mxGraphModel dx="2514" dy="967" grid="1" gridSize="10" guides="1" tooltips="1" connect="1" arrows="1" fold="1" page="1" pageScale="1" pageWidth="827" pageHeight="1169" math="0" shadow="0">
      <root>
        <mxCell id="0" />
        <mxCell id="1" parent="0" />
        <mxCell id="xWPHA_yK9mj-nhTMeCzt-11" value="" style="edgeStyle=orthogonalEdgeStyle;rounded=0;orthogonalLoop=1;jettySize=auto;html=1;" parent="1" source="xWPHA_yK9mj-nhTMeCzt-1" target="xWPHA_yK9mj-nhTMeCzt-5" edge="1">
          <mxGeometry relative="1" as="geometry" />
        </mxCell>
        <mxCell id="xWPHA_yK9mj-nhTMeCzt-1" value="Début" style="ellipse;whiteSpace=wrap;html=1;fillColor=#f5f5f5;strokeColor=#666666;fontColor=#333333;" parent="1" vertex="1">
          <mxGeometry x="145" y="120" width="150" height="80" as="geometry" />
        </mxCell>
        <mxCell id="xWPHA_yK9mj-nhTMeCzt-15" value="" style="edgeStyle=orthogonalEdgeStyle;rounded=0;orthogonalLoop=1;jettySize=auto;html=1;" parent="1" source="xWPHA_yK9mj-nhTMeCzt-2" target="xWPHA_yK9mj-nhTMeCzt-14" edge="1">
          <mxGeometry relative="1" as="geometry" />
        </mxCell>
        <mxCell id="xWPHA_yK9mj-nhTMeCzt-22" value="" style="edgeStyle=orthogonalEdgeStyle;rounded=0;orthogonalLoop=1;jettySize=auto;html=1;" parent="1" source="xWPHA_yK9mj-nhTMeCzt-2" target="xWPHA_yK9mj-nhTMeCzt-14" edge="1">
          <mxGeometry relative="1" as="geometry" />
        </mxCell>
        <mxCell id="xWPHA_yK9mj-nhTMeCzt-2" value="Récupérer la valeur saisie par l&#39;utilisateur dans la barre de recherche" style="rounded=0;whiteSpace=wrap;html=1;align=center;fillColor=#fff2cc;strokeColor=#d6b656;" parent="1" vertex="1">
          <mxGeometry x="155" y="590" width="130" height="60" as="geometry" />
        </mxCell>
        <mxCell id="xWPHA_yK9mj-nhTMeCzt-10" value="" style="edgeStyle=orthogonalEdgeStyle;rounded=0;orthogonalLoop=1;jettySize=auto;html=1;" parent="1" target="xWPHA_yK9mj-nhTMeCzt-6" edge="1">
          <mxGeometry relative="1" as="geometry">
            <mxPoint x="220" y="280" as="sourcePoint" />
          </mxGeometry>
        </mxCell>
        <mxCell id="xWPHA_yK9mj-nhTMeCzt-9" value="" style="edgeStyle=orthogonalEdgeStyle;rounded=0;orthogonalLoop=1;jettySize=auto;html=1;" parent="1" source="xWPHA_yK9mj-nhTMeCzt-5" target="xWPHA_yK9mj-nhTMeCzt-6" edge="1">
          <mxGeometry relative="1" as="geometry" />
        </mxCell>
        <mxCell id="xWPHA_yK9mj-nhTMeCzt-5" value="&lt;div&gt;L&#39;utilisateur saisit &lt;br&gt;&lt;/div&gt;&lt;div&gt;dans la barre de recherche&lt;/div&gt;" style="shape=parallelogram;perimeter=parallelogramPerimeter;whiteSpace=wrap;html=1;fixedSize=1;align=center;fillColor=#ffe6cc;strokeColor=#d79b00;" parent="1" vertex="1">
          <mxGeometry x="120" y="240" width="200" height="60" as="geometry" />
        </mxCell>
        <mxCell id="xWPHA_yK9mj-nhTMeCzt-20" value="" style="edgeStyle=orthogonalEdgeStyle;rounded=0;orthogonalLoop=1;jettySize=auto;html=1;" parent="1" source="xWPHA_yK9mj-nhTMeCzt-6" target="xWPHA_yK9mj-nhTMeCzt-19" edge="1">
          <mxGeometry relative="1" as="geometry" />
        </mxCell>
        <mxCell id="xWPHA_yK9mj-nhTMeCzt-6" value="au moins 3 caractères " style="rhombus;whiteSpace=wrap;html=1;fillColor=#dae8fc;strokeColor=#6c8ebf;" parent="1" vertex="1">
          <mxGeometry x="172.5" y="350" width="95" height="80" as="geometry" />
        </mxCell>
        <mxCell id="xWPHA_yK9mj-nhTMeCzt-12" value="OUI" style="text;html=1;align=center;verticalAlign=middle;resizable=0;points=[];autosize=1;strokeColor=none;fillColor=none;" parent="1" vertex="1">
          <mxGeometry x="240" y="440" width="40" height="30" as="geometry" />
        </mxCell>
        <mxCell id="xWPHA_yK9mj-nhTMeCzt-17" value="" style="edgeStyle=orthogonalEdgeStyle;rounded=0;orthogonalLoop=1;jettySize=auto;html=1;" parent="1" source="xWPHA_yK9mj-nhTMeCzt-14" target="xWPHA_yK9mj-nhTMeCzt-16" edge="1">
          <mxGeometry relative="1" as="geometry" />
        </mxCell>
        <mxCell id="xWPHA_yK9mj-nhTMeCzt-14" value="&lt;div&gt;la valeur saisie &lt;br&gt;&lt;/div&gt;&lt;div&gt;correspond à un &lt;br&gt;&lt;/div&gt;&lt;div&gt;mot-clé ou à un ingrédient &lt;br&gt;&lt;/div&gt;&lt;div&gt;d&#39;une ou plusieurs recettes &lt;br&gt;&lt;/div&gt;&lt;div&gt;(titre, ingrédients, &lt;br&gt;&lt;/div&gt;&lt;div&gt;description)&lt;/div&gt;" style="rhombus;whiteSpace=wrap;html=1;fillColor=#dae8fc;strokeColor=#6c8ebf;" parent="1" vertex="1">
          <mxGeometry x="135" y="680" width="170" height="170" as="geometry" />
        </mxCell>
        <mxCell id="Jp8aBGNhL-xKk1CDspty-2" value="" style="edgeStyle=orthogonalEdgeStyle;rounded=0;orthogonalLoop=1;jettySize=auto;html=1;" parent="1" source="xWPHA_yK9mj-nhTMeCzt-16" target="Jp8aBGNhL-xKk1CDspty-1" edge="1">
          <mxGeometry relative="1" as="geometry" />
        </mxCell>
        <mxCell id="xWPHA_yK9mj-nhTMeCzt-16" value="Ajouter la ou les recettes au tableau des recettes filtrées" style="rounded=0;whiteSpace=wrap;html=1;align=center;fillColor=#fff2cc;strokeColor=#d6b656;" parent="1" vertex="1">
          <mxGeometry x="40" y="900" width="130" height="60" as="geometry" />
        </mxCell>
        <mxCell id="xWPHA_yK9mj-nhTMeCzt-18" value="OUI" style="text;html=1;align=center;verticalAlign=middle;resizable=0;points=[];autosize=1;strokeColor=none;fillColor=none;" parent="1" vertex="1">
          <mxGeometry x="95" y="840" width="40" height="30" as="geometry" />
        </mxCell>
        <mxCell id="xWPHA_yK9mj-nhTMeCzt-26" value="" style="edgeStyle=orthogonalEdgeStyle;rounded=0;orthogonalLoop=1;jettySize=auto;html=1;entryX=0.5;entryY=0;entryDx=0;entryDy=0;" parent="1" source="xWPHA_yK9mj-nhTMeCzt-19" target="xWPHA_yK9mj-nhTMeCzt-2" edge="1">
          <mxGeometry relative="1" as="geometry">
            <Array as="points">
              <mxPoint x="220" y="560" />
              <mxPoint x="220" y="560" />
            </Array>
          </mxGeometry>
        </mxCell>
        <mxCell id="xWPHA_yK9mj-nhTMeCzt-19" value="Initialiser un tableau vide pour les recettes filtrées" style="rounded=0;whiteSpace=wrap;html=1;align=center;fillColor=#fff2cc;strokeColor=#d6b656;" parent="1" vertex="1">
          <mxGeometry x="150" y="480" width="140" height="60" as="geometry" />
        </mxCell>
        <mxCell id="Jp8aBGNhL-xKk1CDspty-1" value="Actualiser l&#39;interface avec les résultats de recherche" style="rounded=0;whiteSpace=wrap;html=1;align=center;fillColor=#fff2cc;strokeColor=#d6b656;" parent="1" vertex="1">
          <mxGeometry x="40" y="990" width="130" height="60" as="geometry" />
        </mxCell>
        <mxCell id="Jp8aBGNhL-xKk1CDspty-27" value="" style="edgeStyle=orthogonalEdgeStyle;rounded=0;orthogonalLoop=1;jettySize=auto;html=1;exitX=1.002;exitY=0.867;exitDx=0;exitDy=0;exitPerimeter=0;" parent="1" source="Jp8aBGNhL-xKk1CDspty-1" target="Jp8aBGNhL-xKk1CDspty-26" edge="1">
          <mxGeometry relative="1" as="geometry">
            <mxPoint x="180" y="1050" as="sourcePoint" />
            <Array as="points">
              <mxPoint x="170" y="1040" />
              <mxPoint x="220" y="1040" />
            </Array>
          </mxGeometry>
        </mxCell>
        <mxCell id="Jp8aBGNhL-xKk1CDspty-26" value="FIN" style="ellipse;whiteSpace=wrap;html=1;rounded=0;fillColor=#f5f5f5;fontColor=#333333;strokeColor=#666666;" parent="1" vertex="1">
          <mxGeometry x="179.995" y="1235" width="80" height="80" as="geometry" />
        </mxCell>
        <mxCell id="Jp8aBGNhL-xKk1CDspty-28" value="&lt;h2 style=&quot;font-size: 14px;&quot; align=&quot;center&quot;&gt;&lt;font style=&quot;font-size: 14px;&quot;&gt;Version 1 :&lt;br&gt;&lt;/font&gt;&lt;/h2&gt;&lt;h2 style=&quot;font-size: 14px;&quot; align=&quot;center&quot;&gt;&lt;font style=&quot;font-size: 14px;&quot;&gt;Utilisation des boucles natives (while, for...)&lt;/font&gt;&lt;/h2&gt;" style="text;whiteSpace=wrap;html=1;align=center;" parent="1" vertex="1">
          <mxGeometry x="-30" y="20" width="500" height="70" as="geometry" />
        </mxCell>
        <mxCell id="Jp8aBGNhL-xKk1CDspty-29" value="" style="edgeStyle=orthogonalEdgeStyle;rounded=0;orthogonalLoop=1;jettySize=auto;html=1;" parent="1" source="Jp8aBGNhL-xKk1CDspty-30" target="Jp8aBGNhL-xKk1CDspty-37" edge="1">
          <mxGeometry relative="1" as="geometry" />
        </mxCell>
        <mxCell id="Jp8aBGNhL-xKk1CDspty-30" value="Début" style="ellipse;whiteSpace=wrap;html=1;fillColor=#f5f5f5;strokeColor=#666666;fontColor=#333333;" parent="1" vertex="1">
          <mxGeometry x="645" y="120" width="150" height="80" as="geometry" />
        </mxCell>
        <mxCell id="Jp8aBGNhL-xKk1CDspty-31" value="" style="edgeStyle=orthogonalEdgeStyle;rounded=0;orthogonalLoop=1;jettySize=auto;html=1;" parent="1" source="Jp8aBGNhL-xKk1CDspty-33" target="Jp8aBGNhL-xKk1CDspty-42" edge="1">
          <mxGeometry relative="1" as="geometry" />
        </mxCell>
        <mxCell id="Jp8aBGNhL-xKk1CDspty-32" value="" style="edgeStyle=orthogonalEdgeStyle;rounded=0;orthogonalLoop=1;jettySize=auto;html=1;" parent="1" source="Jp8aBGNhL-xKk1CDspty-33" target="Jp8aBGNhL-xKk1CDspty-42" edge="1">
          <mxGeometry relative="1" as="geometry" />
        </mxCell>
        <mxCell id="Jp8aBGNhL-xKk1CDspty-33" value="Utiliser une fonction de rappel pour vérifier si la valeur saisie&amp;nbsp; correspond à un mot-clé ou à un ingrédient de la recette (titre,&amp;nbsp; ingrédients, description)" style="rounded=0;whiteSpace=wrap;html=1;align=center;fillColor=#fff2cc;strokeColor=#d6b656;" parent="1" vertex="1">
          <mxGeometry x="560" y="580" width="320" height="60" as="geometry" />
        </mxCell>
        <mxCell id="Jp8aBGNhL-xKk1CDspty-34" value="" style="edgeStyle=orthogonalEdgeStyle;rounded=0;orthogonalLoop=1;jettySize=auto;html=1;" parent="1" target="Jp8aBGNhL-xKk1CDspty-39" edge="1">
          <mxGeometry relative="1" as="geometry">
            <mxPoint x="720" y="280" as="sourcePoint" />
          </mxGeometry>
        </mxCell>
        <mxCell id="Jp8aBGNhL-xKk1CDspty-36" value="" style="edgeStyle=orthogonalEdgeStyle;rounded=0;orthogonalLoop=1;jettySize=auto;html=1;" parent="1" source="Jp8aBGNhL-xKk1CDspty-37" target="Jp8aBGNhL-xKk1CDspty-39" edge="1">
          <mxGeometry relative="1" as="geometry" />
        </mxCell>
        <mxCell id="Jp8aBGNhL-xKk1CDspty-37" value="&lt;div&gt;L&#39;utilisateur saisit &lt;br&gt;&lt;/div&gt;&lt;div&gt;dans la barre de recherche&lt;/div&gt;" style="shape=parallelogram;perimeter=parallelogramPerimeter;whiteSpace=wrap;html=1;fixedSize=1;align=center;fillColor=#ffe6cc;strokeColor=#d79b00;" parent="1" vertex="1">
          <mxGeometry x="619.5" y="240" width="200" height="60" as="geometry" />
        </mxCell>
        <mxCell id="Jp8aBGNhL-xKk1CDspty-38" value="" style="edgeStyle=orthogonalEdgeStyle;rounded=0;orthogonalLoop=1;jettySize=auto;html=1;" parent="1" source="Jp8aBGNhL-xKk1CDspty-39" target="Jp8aBGNhL-xKk1CDspty-47" edge="1">
          <mxGeometry relative="1" as="geometry" />
        </mxCell>
        <mxCell id="Jp8aBGNhL-xKk1CDspty-39" value="au moins 3 caractères " style="rhombus;whiteSpace=wrap;html=1;fillColor=#dae8fc;strokeColor=#6c8ebf;" parent="1" vertex="1">
          <mxGeometry x="672.5" y="350" width="95" height="80" as="geometry" />
        </mxCell>
        <mxCell id="Jp8aBGNhL-xKk1CDspty-40" value="OUI" style="text;html=1;align=center;verticalAlign=middle;resizable=0;points=[];autosize=1;strokeColor=none;fillColor=none;" parent="1" vertex="1">
          <mxGeometry x="735" y="440" width="40" height="30" as="geometry" />
        </mxCell>
        <mxCell id="Jp8aBGNhL-xKk1CDspty-41" value="" style="edgeStyle=orthogonalEdgeStyle;rounded=0;orthogonalLoop=1;jettySize=auto;html=1;" parent="1" source="Jp8aBGNhL-xKk1CDspty-42" target="Jp8aBGNhL-xKk1CDspty-44" edge="1">
          <mxGeometry relative="1" as="geometry" />
        </mxCell>
        <mxCell id="Jp8aBGNhL-xKk1CDspty-42" value="&lt;div&gt;La fonction de rappel &lt;br&gt;&lt;/div&gt;&lt;div&gt;renvoie &#39;true&#39; ou &#39;false&#39;&lt;br&gt;&lt;/div&gt;" style="rhombus;whiteSpace=wrap;html=1;fillColor=#dae8fc;strokeColor=#6c8ebf;" parent="1" vertex="1">
          <mxGeometry x="635" y="680" width="170" height="170" as="geometry" />
        </mxCell>
        <mxCell id="Jp8aBGNhL-xKk1CDspty-43" value="" style="edgeStyle=orthogonalEdgeStyle;rounded=0;orthogonalLoop=1;jettySize=auto;html=1;" parent="1" source="Jp8aBGNhL-xKk1CDspty-44" target="Jp8aBGNhL-xKk1CDspty-49" edge="1">
          <mxGeometry relative="1" as="geometry" />
        </mxCell>
        <mxCell id="Jp8aBGNhL-xKk1CDspty-44" value="Ajouter la ou les recettes au tableau des recettes filtrées" style="rounded=0;whiteSpace=wrap;html=1;align=center;fillColor=#fff2cc;strokeColor=#d6b656;" parent="1" vertex="1">
          <mxGeometry x="549.99" y="910" width="130" height="60" as="geometry" />
        </mxCell>
        <mxCell id="Jp8aBGNhL-xKk1CDspty-45" value="TRUE" style="text;html=1;align=center;verticalAlign=middle;resizable=0;points=[];autosize=1;strokeColor=none;fillColor=none;" parent="1" vertex="1">
          <mxGeometry x="590" y="840" width="60" height="30" as="geometry" />
        </mxCell>
        <mxCell id="Jp8aBGNhL-xKk1CDspty-46" value="" style="edgeStyle=orthogonalEdgeStyle;rounded=0;orthogonalLoop=1;jettySize=auto;html=1;entryX=0.5;entryY=0;entryDx=0;entryDy=0;" parent="1" source="Jp8aBGNhL-xKk1CDspty-47" target="Jp8aBGNhL-xKk1CDspty-33" edge="1">
          <mxGeometry relative="1" as="geometry">
            <Array as="points">
              <mxPoint x="720" y="520" />
            </Array>
          </mxGeometry>
        </mxCell>
        <mxCell id="Jp8aBGNhL-xKk1CDspty-47" value="Utiliser la méthode &#39;filter&#39; pour filtrer les recettes en fonction de la valeur saisie" style="rounded=0;whiteSpace=wrap;html=1;align=center;fillColor=#fff2cc;strokeColor=#d6b656;" parent="1" vertex="1">
          <mxGeometry x="650" y="480" width="140" height="60" as="geometry" />
        </mxCell>
        <mxCell id="IoGaBJS2Na2avN20czFi-11" style="edgeStyle=orthogonalEdgeStyle;rounded=0;orthogonalLoop=1;jettySize=auto;html=1;entryX=0.5;entryY=0;entryDx=0;entryDy=0;" edge="1" parent="1" source="Jp8aBGNhL-xKk1CDspty-49" target="Jp8aBGNhL-xKk1CDspty-64">
          <mxGeometry relative="1" as="geometry">
            <Array as="points">
              <mxPoint x="615" y="1070" />
              <mxPoint x="719" y="1070" />
            </Array>
          </mxGeometry>
        </mxCell>
        <mxCell id="Jp8aBGNhL-xKk1CDspty-49" value="Actualiser l&#39;interface avec les résultats de recherche" style="rounded=0;whiteSpace=wrap;html=1;align=center;fillColor=#fff2cc;strokeColor=#d6b656;" parent="1" vertex="1">
          <mxGeometry x="549.99" y="990" width="130" height="60" as="geometry" />
        </mxCell>
        <mxCell id="Jp8aBGNhL-xKk1CDspty-64" value="FIN" style="ellipse;whiteSpace=wrap;html=1;rounded=0;fillColor=#f5f5f5;fontColor=#333333;strokeColor=#666666;" parent="1" vertex="1">
          <mxGeometry x="679.495" y="1241" width="80" height="80" as="geometry" />
        </mxCell>
        <mxCell id="Jp8aBGNhL-xKk1CDspty-65" value="&lt;h2 style=&quot;font-size: 14px;&quot; align=&quot;center&quot;&gt;&lt;font style=&quot;font-size: 14px;&quot;&gt;Version 2 :&lt;br&gt;&lt;/font&gt;&lt;/h2&gt;&lt;h2 style=&quot;font-size: 14px;&quot;&gt;&lt;font style=&quot;font-size: 14px;&quot;&gt;Utilisation des méthodes de l&#39;objet Array (forEach, filter, map, reduce)&lt;/font&gt;&lt;/h2&gt;&lt;h2 align=&quot;center&quot;&gt;&lt;/h2&gt;" style="text;whiteSpace=wrap;html=1;align=center;" parent="1" vertex="1">
          <mxGeometry x="470" y="20" width="500" height="70" as="geometry" />
        </mxCell>
        <mxCell id="IoGaBJS2Na2avN20czFi-1" value="" style="edgeStyle=orthogonalEdgeStyle;rounded=0;orthogonalLoop=1;jettySize=auto;html=1;" edge="1" parent="1">
          <mxGeometry relative="1" as="geometry">
            <mxPoint x="720" y="880" as="sourcePoint" />
            <mxPoint x="850" y="909" as="targetPoint" />
          </mxGeometry>
        </mxCell>
        <mxCell id="IoGaBJS2Na2avN20czFi-2" value="N&#39;ajouter aucune recettes au tableau" style="rounded=0;whiteSpace=wrap;html=1;align=center;fillColor=#fff2cc;strokeColor=#d6b656;" vertex="1" parent="1">
          <mxGeometry x="790" y="910" width="130" height="60" as="geometry" />
        </mxCell>
        <mxCell id="IoGaBJS2Na2avN20czFi-3" value="" style="edgeStyle=orthogonalEdgeStyle;rounded=0;orthogonalLoop=1;jettySize=auto;html=1;" edge="1" parent="1" target="IoGaBJS2Na2avN20czFi-4">
          <mxGeometry relative="1" as="geometry">
            <mxPoint x="855.01" y="970" as="sourcePoint" />
          </mxGeometry>
        </mxCell>
        <mxCell id="IoGaBJS2Na2avN20czFi-10" style="edgeStyle=orthogonalEdgeStyle;rounded=0;orthogonalLoop=1;jettySize=auto;html=1;entryX=0.5;entryY=0;entryDx=0;entryDy=0;" edge="1" parent="1" source="IoGaBJS2Na2avN20czFi-4" target="Jp8aBGNhL-xKk1CDspty-64">
          <mxGeometry relative="1" as="geometry" />
        </mxCell>
        <mxCell id="IoGaBJS2Na2avN20czFi-4" value="&lt;div&gt;Actualiser l&#39;interface avec un message qui affiche &lt;br&gt;&lt;/div&gt;&lt;div&gt;&amp;nbsp;« Aucune recette ne correspond à votre critère... vous pouvez&lt;/div&gt;&lt;span dir=&quot;ltr&quot; role=&quot;presentation&quot; style=&quot;left: 11.59%; top: 22.34%; font-size: calc(var(--scale-factor)*11.00px); font-family: sans-serif; transform: scaleX(0.999692);&quot;&gt;chercher « tarte aux pommes », « poisson », etc&lt;/span&gt;" style="rounded=0;whiteSpace=wrap;html=1;align=center;fillColor=#fff2cc;strokeColor=#d6b656;" vertex="1" parent="1">
          <mxGeometry x="790" y="990" width="130" height="160" as="geometry" />
        </mxCell>
        <mxCell id="IoGaBJS2Na2avN20czFi-5" value="FALSE" style="text;html=1;align=center;verticalAlign=middle;resizable=0;points=[];autosize=1;strokeColor=none;fillColor=none;" vertex="1" parent="1">
          <mxGeometry x="775" y="840" width="60" height="30" as="geometry" />
        </mxCell>
        <mxCell id="IoGaBJS2Na2avN20czFi-12" value="" style="edgeStyle=orthogonalEdgeStyle;rounded=0;orthogonalLoop=1;jettySize=auto;html=1;" edge="1" parent="1">
          <mxGeometry relative="1" as="geometry">
            <mxPoint x="221" y="875" as="sourcePoint" />
            <mxPoint x="351" y="904" as="targetPoint" />
          </mxGeometry>
        </mxCell>
        <mxCell id="IoGaBJS2Na2avN20czFi-17" value="" style="edgeStyle=orthogonalEdgeStyle;rounded=0;orthogonalLoop=1;jettySize=auto;html=1;" edge="1" parent="1" source="IoGaBJS2Na2avN20czFi-13" target="IoGaBJS2Na2avN20czFi-15">
          <mxGeometry relative="1" as="geometry" />
        </mxCell>
        <mxCell id="IoGaBJS2Na2avN20czFi-13" value="N&#39;ajouter aucune recettes au tableau" style="rounded=0;whiteSpace=wrap;html=1;align=center;fillColor=#fff2cc;strokeColor=#d6b656;" vertex="1" parent="1">
          <mxGeometry x="291" y="904" width="130" height="60" as="geometry" />
        </mxCell>
        <mxCell id="IoGaBJS2Na2avN20czFi-14" style="edgeStyle=orthogonalEdgeStyle;rounded=0;orthogonalLoop=1;jettySize=auto;html=1;entryX=0.5;entryY=0;entryDx=0;entryDy=0;" edge="1" parent="1" source="IoGaBJS2Na2avN20czFi-15">
          <mxGeometry relative="1" as="geometry">
            <mxPoint x="220" y="1235" as="targetPoint" />
            <Array as="points">
              <mxPoint x="220" y="1040" />
            </Array>
          </mxGeometry>
        </mxCell>
        <mxCell id="IoGaBJS2Na2avN20czFi-15" value="&lt;div&gt;Actualiser l&#39;interface avec un message qui affiche&lt;/div&gt;&lt;div&gt;&amp;nbsp;« Aucune recette ne correspond à votre critère... vous pouvez&lt;/div&gt;&lt;span dir=&quot;ltr&quot; role=&quot;presentation&quot; style=&quot;left: 11.59%; top: 22.34%; font-size: calc(var(--scale-factor)*11.00px); font-family: sans-serif; transform: scaleX(0.999692);&quot;&gt;chercher « tarte aux pommes », « poisson », etc&lt;/span&gt;" style="rounded=0;whiteSpace=wrap;html=1;align=center;fillColor=#fff2cc;strokeColor=#d6b656;" vertex="1" parent="1">
          <mxGeometry x="291" y="984" width="130" height="160" as="geometry" />
        </mxCell>
        <mxCell id="IoGaBJS2Na2avN20czFi-16" value="&lt;div&gt;NON&lt;/div&gt;" style="text;html=1;align=center;verticalAlign=middle;resizable=0;points=[];autosize=1;strokeColor=none;fillColor=none;" vertex="1" parent="1">
          <mxGeometry x="281" y="834" width="50" height="30" as="geometry" />
        </mxCell>
      </root>
    </mxGraphModel>
  </diagram>
</mxfile>
